General                          : ChattChitto RG - Movies [R2L]
==========
Complete name                    : 15 Minutes 2001 720p BRRip H264 [ChattChitto RG]
Format                           : MPEG-4
Format profile                   : Base Media
Codec ID                         : isom
File size                        : 2.24 GiB
Duration                         : 2h 0mn
Overall bit rate                 : 2 657 Kbps
Encoded date                     : UTC 2011-02-17 06:14:01

Video
==========
ID                               : 1
Format                           : AVC
Format/Info                      : Advanced Video Codec
Format profile                   : High@L4.0
Format settings, CABAC           : Yes
Format settings, ReFrames        : 4 frames
Codec ID                         : avc1
Codec ID/Info                    : Advanced Video Coding
Duration                         : 2h 0mn
Bit rate mode                    : Variable
Bit rate                         : 2 300 Kbps
Maximum bit rate                 : 15.6 Mbps
Width                            : 1 280 pixels
Height                           : 528 pixels
Display aspect ratio             : 2.40:1
Frame rate mode                  : Constant
Frame rate                       : 23.976 fps
Color space                      : YUV
Chroma subsampling               : 4:2:0
Bit depth                        : 8 bits
Scan type                        : Progressive
Bits/(Pixel*Frame)               : 0.142
Stream size                      : 1.94 GiB (87%)
Writing library                  : x264 core 84 r1400M 20fa784
Encoded date                     : UTC 2011-02-16 22:55:24

Audio
==========
ID                               : 2
Format                           : AAC
Format/Info                      : Advanced Audio Codec
Format profile                   : LC
Codec ID                         : 40
Duration                         : 2h 0mn
Bit rate mode                    : Variable
Bit rate                         : 352.8 Kbps
Maximum bit rate                 : 459 Kbps
Channel(s)                       : 6 channels
Channel positions                : Front: L C R, Side: L R, LFE
Sampling rate                    : 48.0 KHz
Compression mode                 : Lossy
Stream size                      : 305 MiB (13%)
Encoded date                     : UTC 2011-02-17 06:14:40

Subtitles                        : English | French | Spanish


----------------------------------------------------
IMDB Link: http://www.imdb.com/title/tt0179626/
----------------------------------------------------



Screen Shots:
==============    
http://chattchitto.net/chattchittorg/movies/brrip/2011/15_minutes/3.png 
http://chattchitto.net/chattchittorg/movies/brrip/2011/15_minutes/4.png 
http://chattchitto.net/chattchittorg/movies/brrip/2011/15_minutes/5.png 
http://chattchitto.net/chattchittorg/movies/brrip/2011/15_minutes/6.png 
http://chattchitto.net/chattchittorg/movies/brrip/2011/15_minutes/7.png



ScreenShots Comparison:
=========================  
http://screenshotcomparison.com/comparison/36963



Plot:
======
A homicide detective and a fire marshall must stop a pair of murderers who commit videotaped crimes to become media darlings. 



Release Info:
==============
original name .... : 15 Minutes 2001 720p BRRip H264 [ChattChitto RG]
ripper.............: FSiHD
encoder............: Recalled2Life (R2L)
video codec........: H264/.MP4
video bitrate......: 2300 Kbps
audio codec........: AAC-LC
aspect ratio.......: 2.40:1
resolution.........: 1280 x 528
genre..............: Action | Crime | Drama
runtime............: 2h 0mn
language...........: English
rating.............: R
subtitles..........: English | French | Spanish
sample.............: Yes
2ch Audio..........: 2ch Audio for XBox Viewers
Compatibility .....: XBox | PS3 | WD Live



Source:
========
15.Minutes.2001.1080p.BluRay.x264-FSiHD  THANKS!



Notes:
=======
ChattChitto RG Encourages Burning this Film with ConvertXtoDVD and Playing with VLC media player.
XBox 360 | PS3 | WD Live - Compatible 
Enhanced for your viewing pleasure ;)